<?xml version="1.0" encoding="UTF-8"?>
<svg id="Layer_1" xmlns="http://www.w3.org/2000/svg" viewBox="0 0 250 250">
    <defs>
        <style>.cls-1{fill:#f7901e;}</style>
    </defs>
    <g>
        <path class="cls-1"
            d="M187.98,30.91c12.83,0,23.23,10.4,23.23,23.23s-10.4,23.23-23.23,23.23-23.23-10.4-23.23-23.23,10.4-23.23,23.23-23.23" />
        <path class="cls-1"
            d="M117.94,30.91c12.83,0,23.23,10.4,23.23,23.23s-10.4,23.23-23.23,23.23-23.23-10.4-23.23-23.23,10.4-23.23,23.23-23.23" />
        <path class="cls-1"
            d="M47.9,30.91c12.83,0,23.23,10.4,23.23,23.23s-10.4,23.23-23.23,23.23-23.23-10.4-23.23-23.23,10.4-23.23,23.23-23.23" />
    </g>
    <g>
        <path class="cls-1"
            d="M117.56,170.77c12.77,0,23.12,10.35,23.12,23.12s-10.35,23.12-23.12,23.12-23.12-10.35-23.12-23.12,10.35-23.12,23.12-23.12" />
        <path class="cls-1"
            d="M47.85,170.77c12.77,0,23.12,10.35,23.12,23.12s-10.35,23.12-23.12,23.12-23.12-10.35-23.12-23.12,10.35-23.12,23.12-23.12" />
        <path class="cls-1"
            d="M117.94,100.95c12.83,0,23.23,10.4,23.23,23.23s-10.4,23.23-23.23,23.23-23.23-10.4-23.23-23.23,10.4-23.23,23.23-23.23" />
        <path class="cls-1"
            d="M47.9,100.95c12.83,0,23.23,10.4,23.23,23.23s-10.4,23.23-23.23,23.23-23.23-10.4-23.23-23.23,10.4-23.23,23.23-23.23" />
    </g>
</svg>